<?xml version="1.0" standalone="no"?>
<!DOCTYPE svg PUBLIC "-//W3C//DTD SVG 20010904//EN"
 "http://www.w3.org/TR/2001/REC-SVG-20010904/DTD/svg10.dtd">
<svg version="1.0" xmlns="http://www.w3.org/2000/svg"
 width="200.000000pt" height="200.000000pt" viewBox="0 0 200.000000 200.000000"
 preserveAspectRatio="xMidYMid meet">
<metadata>
Created by potrace 1.14, written by Peter Selinger 2001-2017
</metadata>
<g transform="translate(0.000000,200.000000) scale(0.100000,-0.100000)"
fill="#000000" stroke="none">
<path d="M832 1985 c-215 -39 -385 -127 -537 -280 -181 -180 -279 -402 -292
-660 -24 -477 294 -899 767 -1018 115 -29 329 -30 445 -3 380 87 674 381 761
761 27 116 26 330 -3 445 -86 342 -331 609 -660 719 -145 49 -333 63 -481 36z
m383 -179 c289 -80 517 -313 591 -604 113 -444 -158 -895 -604 -1008 -438
-111 -889 155 -1009 596 -25 91 -25 329 0 420 83 304 325 534 637 606 76 18
306 12 385 -10z"/>
<path d="M918 1253 l-3 -168 -167 -3 -168 -2 0 -80 0 -80 168 -2 167 -3 3
-167 2 -168 80 0 80 0 2 168 3 167 168 3 167 2 0 80 0 80 -167 2 -168 3 -3
168 -2 167 -80 0 -80 0 -2 -167z"/>
</g>
</svg>
