<?xml version="1.0" standalone="no"?>
<!DOCTYPE svg PUBLIC "-//W3C//DTD SVG 20010904//EN"
 "http://www.w3.org/TR/2001/REC-SVG-20010904/DTD/svg10.dtd">
<svg version="1.0" xmlns="http://www.w3.org/2000/svg"
 width="225.000000pt" height="225.000000pt" viewBox="0 0 225.000000 225.000000"
 preserveAspectRatio="xMidYMid meet">
<metadata>
Created by potrace 1.14, written by Peter Selinger 2001-2017
</metadata>
<g transform="translate(0.000000,225.000000) scale(0.100000,-0.100000)"
fill="#000000" stroke="none">
<path d="M924 2240 c-26 -10 -54 -48 -54 -72 0 -17 -21 -18 -333 -18 -255 0
-337 -3 -351 -13 -39 -29 -39 -155 0 -184 26 -19 1852 -19 1878 0 35 26 40
147 6 181 -7 7 -119 13 -353 16 -339 5 -342 5 -345 26 -2 12 -14 32 -28 45
-25 23 -31 24 -212 26 -103 1 -197 -2 -208 -7z"/>
<path d="M357 923 c56 -505 102 -919 102 -920 1 -2 299 -3 664 -3 l663 0 98
883 c53 485 100 899 103 920 l6 37 -50 0 c-49 0 -51 -1 -56 -32 -2 -18 -49
-410 -103 -870 l-98 -838 -563 0 c-310 0 -563 3 -564 8 0 4 -46 394 -102 867
l-102 860 -50 3 -51 3 103 -918z"/>
<path d="M665 1813 c2 -16 26 -382 52 -815 l48 -788 50 0 50 0 -51 812 c-29
447 -52 814 -53 816 -1 1 -23 2 -51 2 -48 0 -49 -1 -45 -27z"/>
<path d="M1070 1025 l0 -815 50 0 50 0 0 815 0 815 -50 0 -50 0 0 -815z"/>
<path d="M1480 1823 c0 -10 -7 -121 -15 -248 -19 -285 -85 -1346 -85 -1360 0
-6 23 -10 50 -10 28 0 50 5 50 10 0 6 22 368 50 805 27 437 50 801 50 808 0 8
-17 12 -50 12 -41 0 -50 -3 -50 -17z"/>
</g>
</svg>
