<?xml version="1.0" standalone="no"?>
<!DOCTYPE svg PUBLIC "-//W3C//DTD SVG 20010904//EN"
 "http://www.w3.org/TR/2001/REC-SVG-20010904/DTD/svg10.dtd">
<svg version="1.0" xmlns="http://www.w3.org/2000/svg"
 width="2161.000000pt" height="2145.000000pt" viewBox="0 0 2161.000000 2145.000000"
 preserveAspectRatio="xMidYMid meet">
<metadata>
Created by potrace 1.14, written by Peter Selinger 2001-2017
</metadata>
<g transform="translate(0.000000,2145.000000) scale(0.100000,-0.100000)"
fill="#000000" stroke="none">
<path d="M13650 20895 c-36 -7 -88 -14 -116 -14 -69 -1 -170 -34 -219 -71 -34
-26 -1182 -1162 -2396 -2370 -174 -173 -892 -886 -1595 -1585 -704 -698 -1573
-1562 -1933 -1920 -360 -357 -797 -792 -971 -965 -3622 -3599 -3525 -3502
-3549 -3555 -13 -27 -36 -99 -52 -160 -16 -60 -35 -132 -43 -160 -15 -53 -56
-204 -113 -420 -19 -71 -41 -152 -49 -180 -15 -53 -49 -180 -82 -305 -11 -41
-30 -111 -42 -155 -12 -44 -26 -93 -30 -110 -4 -16 -20 -75 -35 -130 -41 -152
-73 -270 -99 -370 -13 -49 -35 -130 -49 -180 -14 -49 -40 -144 -57 -210 -18
-66 -38 -142 -45 -170 -15 -54 -44 -162 -100 -370 -19 -71 -41 -152 -49 -180
-23 -80 -53 -194 -80 -295 -23 -91 -52 -199 -82 -305 -7 -27 -24 -90 -38 -140
-29 -108 -73 -271 -91 -340 -27 -99 -63 -232 -89 -335 -15 -58 -36 -132 -46
-165 -18 -56 -34 -116 -94 -340 -14 -49 -34 -126 -46 -170 -12 -44 -33 -123
-47 -175 -14 -52 -33 -124 -43 -160 -10 -36 -29 -108 -43 -160 -14 -52 -39
-147 -56 -210 -17 -63 -39 -142 -47 -175 -9 -33 -22 -80 -29 -105 -7 -25 -27
-99 -44 -165 -18 -66 -43 -158 -56 -205 -14 -47 -27 -98 -31 -115 -4 -16 -17
-68 -31 -115 -13 -47 -38 -137 -54 -200 -17 -63 -39 -149 -51 -190 -63 -233
-87 -325 -108 -407 -10 -40 -25 -94 -33 -120 -8 -26 -22 -75 -30 -108 -17 -66
-70 -260 -93 -344 -9 -29 -26 -94 -40 -145 -13 -50 -34 -131 -48 -181 -37
-140 -76 -285 -93 -345 -8 -30 -28 -104 -44 -165 -16 -60 -43 -162 -60 -225
-17 -63 -44 -162 -59 -220 -15 -58 -39 -145 -53 -195 -44 -157 -51 -207 -37
-277 15 -77 37 -121 89 -180 82 -91 214 -135 336 -110 53 11 246 60 336 86
117 33 468 126 837 222 52 13 97 26 102 29 5 3 28 9 52 14 24 5 70 16 103 25
33 10 121 33 195 53 74 19 194 51 265 70 72 19 162 43 200 53 116 30 216 57
300 80 44 12 121 32 170 45 50 12 115 29 145 38 30 9 107 29 170 46 114 30
295 78 400 106 30 8 107 29 170 45 63 16 147 38 185 49 39 11 122 33 185 50
108 28 146 38 345 91 44 12 130 35 190 50 61 16 137 36 170 45 33 9 101 27
151 40 51 13 116 30 145 38 30 9 83 23 119 33 36 9 108 29 160 44 88 25 136
38 280 76 30 8 79 22 109 30 29 9 106 29 170 46 64 16 130 33 146 38 17 4 82
22 145 38 63 17 151 40 195 52 44 12 127 35 185 50 58 15 168 44 245 65 77 20
154 40 170 45 17 4 66 18 110 30 44 12 96 26 115 30 19 4 62 15 95 25 33 9
119 32 190 51 72 19 182 48 245 65 63 17 138 37 165 44 28 7 86 23 130 35 44
12 98 26 120 31 22 5 72 18 110 29 39 11 106 29 150 40 44 12 105 28 135 37
30 9 98 27 150 40 119 31 174 45 275 73 75 20 161 43 415 110 58 16 148 39
200 53 52 14 129 34 170 45 41 11 111 30 155 42 44 12 94 26 110 30 83 20 59
-3 1109 1040 324 322 738 734 921 915 182 182 910 904 1616 1605 706 701 1578
1568 1938 1925 1125 1119 1246 1239 2562 2545 2094 2079 2272 2258 2300 2315
26 53 25 39 21 360 -1 83 -24 243 -37 265 -3 4 -16 50 -29 102 -13 51 -38 140
-55 198 -16 58 -39 139 -50 180 -11 41 -32 118 -46 170 -15 52 -34 120 -42
150 -8 30 -23 82 -33 115 -10 33 -23 83 -30 110 -7 28 -20 77 -30 110 -10 33
-25 89 -35 125 -10 36 -23 85 -30 110 -7 25 -23 81 -35 125 -55 197 -137 284
-270 285 -71 0 -157 -40 -225 -105 -46 -45 -2233 -2215 -2966 -2945 -651 -647
-1673 -1663 -2914 -2895 -703 -698 -1421 -1412 -1595 -1585 -174 -173 -752
-747 -1284 -1275 -532 -528 -984 -983 -1005 -1010 -89 -117 -147 -255 -176
-419 -23 -129 -16 -266 20 -396 40 -141 83 -297 101 -365 9 -33 24 -87 34
-120 10 -33 23 -82 30 -110 7 -27 20 -77 30 -110 10 -33 25 -89 35 -125 10
-36 23 -85 30 -110 7 -25 28 -98 46 -163 l33 -118 -119 -119 c-66 -66 -126
-120 -134 -120 -13 0 -42 -7 -178 -46 -32 -9 -101 -28 -153 -41 -119 -31 -174
-45 -275 -73 -44 -12 -129 -35 -190 -50 -60 -16 -137 -36 -170 -46 -33 -9 -79
-20 -103 -25 -24 -5 -47 -11 -52 -14 -5 -3 -62 -19 -127 -36 -174 -45 -210
-55 -298 -79 -44 -12 -129 -35 -190 -50 -60 -16 -137 -36 -170 -45 -85 -23
-198 -54 -280 -75 -97 -25 -206 -54 -300 -80 -76 -21 -176 -47 -415 -110 -58
-16 -148 -39 -200 -53 -52 -14 -129 -34 -170 -45 -41 -11 -111 -30 -155 -42
-116 -32 -185 -50 -230 -60 -22 -5 -52 -13 -67 -19 -15 -6 -74 -22 -130 -36
-57 -14 -152 -39 -213 -55 -155 -42 -339 -90 -346 -90 -8 0 76 -83 -1453 1435
-1843 1829 -1928 1914 -1923 1922 3 5 17 53 32 108 15 55 34 125 42 155 8 30
21 78 28 105 26 101 74 281 90 335 8 30 28 105 44 165 16 61 40 151 54 200 14
50 38 135 52 190 15 55 34 125 42 155 8 30 28 105 44 165 40 151 86 320 103
380 8 28 28 104 46 170 30 116 55 208 87 325 8 30 21 78 28 105 23 86 71 267
95 350 23 83 31 113 82 305 17 63 43 160 58 215 15 55 41 152 58 215 17 63 40
151 52 195 12 44 26 94 30 110 4 17 18 66 30 110 12 44 26 94 30 110 62 235
56 223 118 282 31 31 84 82 118 115 l61 59 79 -20 c83 -22 219 -58 419 -111
159 -43 355 -95 490 -131 61 -16 162 -43 225 -60 151 -40 298 -49 426 -24 158
30 283 80 393 154 34 23 218 198 410 389 678 675 1651 1642 2925 2907 709 704
1428 1417 1596 1585 826 821 1731 1720 2904 2885 2137 2123 2172 2157 2193
2200 58 117 47 212 -33 291 -62 60 -111 81 -319 135 -66 17 -133 35 -150 39
-16 4 -91 24 -165 44 -74 19 -160 42 -190 50 -30 9 -107 29 -170 46 -63 16
-137 36 -165 44 -27 7 -131 35 -230 61 -99 26 -238 63 -310 82 -154 41 -323
52 -435 28z"/>
<path d="M16635 19635 c-137 -29 -195 -65 -359 -224 -114 -111 -746 -738
-1745 -1731 -169 -168 -887 -881 -1596 -1585 -709 -704 -1439 -1428 -1621
-1610 -535 -532 -1540 -1530 -2914 -2895 -2125 -2109 -1988 -1971 -2038 -2070
-49 -99 -67 -180 -58 -269 12 -119 18 -126 410 -516 2646 -2631 2457 -2451
2586 -2475 86 -16 227 15 313 70 26 16 51 30 56 30 7 0 917 900 2001 1980 175
173 899 893 1611 1600 712 706 1584 1573 1938 1925 1073 1067 1221 1214 2557
2540 1865 1852 1883 1869 1927 1945 56 97 80 184 76 278 -7 145 60 71 -1110
1232 -579 575 -1204 1196 -1390 1381 -186 185 -358 348 -381 362 -41 24 -137
48 -182 46 -12 -1 -48 -7 -81 -14z"/>
</g>
</svg>
